<svg width="16" height="16" viewBox="0 0 16 16" fill="none" xmlns="http://www.w3.org/2000/svg">
<path d="M9.33333 6.66667H12.5093C13.5005 6.66667 14.1451 7.70975 13.7019 8.59629L11.3685 13.263C11.1427 13.7147 10.681 14 10.176 14H7.49747C7.38846 14 7.27985 13.9866 7.17409 13.9602L4.66667 13.3333M9.33333 6.66667V3.33333C9.33333 2.59695 8.73638 2 8 2H7.93635C7.60331 2 7.33333 2.26998 7.33333 2.60302C7.33333 3.07922 7.19238 3.54477 6.92823 3.94099L4.66667 7.33333V13.3333M9.33333 6.66667H8M4.66667 13.3333H3.33333C2.59695 13.3333 2 12.7364 2 12V8C2 7.26362 2.59695 6.66667 3.33333 6.66667H5" stroke="#666666" stroke-width="1.33333" stroke-linecap="round" stroke-linejoin="round"/>
</svg>
