<svg width="16" height="16" viewBox="0 0 16 16" fill="none" xmlns="http://www.w3.org/2000/svg">
<path d="M3.13887 11.5769C3.17349 11.4506 3.09762 11.2749 3.02522 11.1482C3.00277 11.1104 2.97832 11.0738 2.95195 11.0386C2.33097 10.0969 1.99999 8.99361 2.00003 7.86556C1.98965 4.62759 4.67464 2 7.99482 2C10.8904 2 13.3077 4.00596 13.8722 6.66874C13.9569 7.06351 13.9998 7.46613 14 7.86989C14 11.1125 11.4186 13.7813 8.09838 13.7813C7.57021 13.7813 6.858 13.6486 6.46944 13.5399C6.08089 13.4311 5.69291 13.2869 5.59281 13.2482C5.49034 13.2089 5.38152 13.1886 5.27175 13.1885C5.15206 13.1881 5.03351 13.2119 4.92329 13.2586L2.96637 13.9648C2.92361 13.9833 2.87828 13.9951 2.83195 14C2.7953 13.9999 2.75904 13.9925 2.72526 13.9783C2.69148 13.964 2.66086 13.9433 2.63516 13.9171C2.60946 13.891 2.58919 13.8601 2.57554 13.826C2.56189 13.792 2.55511 13.7557 2.55561 13.719C2.55801 13.6869 2.56381 13.655 2.57291 13.6241L3.13887 11.5769Z" stroke="#666666" stroke-width="1.33333" stroke-miterlimit="10" stroke-linecap="round"/>
<path d="M5.23069 8.92281C5.74049 8.92281 6.15377 8.50953 6.15377 7.99973C6.15377 7.48993 5.74049 7.07666 5.23069 7.07666C4.72089 7.07666 4.30762 7.48993 4.30762 7.99973C4.30762 8.50953 4.72089 8.92281 5.23069 8.92281Z" fill="#666666"/>
<path d="M7.99973 8.92281C8.50953 8.92281 8.92281 8.50953 8.92281 7.99973C8.92281 7.48993 8.50953 7.07666 7.99973 7.07666C7.48993 7.07666 7.07666 7.48993 7.07666 7.99973C7.07666 8.50953 7.48993 8.92281 7.99973 8.92281Z" fill="#666666"/>
<path d="M10.7693 8.92281C11.2791 8.92281 11.6923 8.50953 11.6923 7.99973C11.6923 7.48993 11.2791 7.07666 10.7693 7.07666C10.2595 7.07666 9.84619 7.48993 9.84619 7.99973C9.84619 8.50953 10.2595 8.92281 10.7693 8.92281Z" fill="#666666"/>
</svg>
